<?xml version="1.0" encoding="UTF-8" standalone="no"?>
<!DOCTYPE svg PUBLIC "-//W3C//DTD SVG 1.1//EN" "http://www.w3.org/Graphics/SVG/1.1/DTD/svg11.dtd">
<svg width="100%" height="100%" viewBox="0 0 58 58" version="1.1" xmlns="http://www.w3.org/2000/svg" xmlns:xlink="http://www.w3.org/1999/xlink" xml:space="preserve" xmlns:serif="http://www.serif.com/" style="fill-rule:evenodd;clip-rule:evenodd;stroke-linejoin:round;stroke-miterlimit:2;">
    <g transform="matrix(0.134956,0,0,0.134956,-6.35062,46.3643)">
        <g id="emoji">
            <g>
                <path d="M469.832,-132.163c0,7.23 -0.367,14.399 -1.103,21.506c-0.735,7.108 -1.777,14.154 -3.125,21.139c2.819,7.72 4.228,15.502 4.228,23.344c0,6.863 -1.041,13.542 -3.125,20.036c-2.083,6.495 -5.024,12.469 -8.823,17.922c-3.799,5.454 -8.363,10.263 -13.694,14.43c-5.331,4.166 -11.243,7.414 -17.738,9.742c-10.049,13.112 -21.353,24.815 -33.914,35.109c-12.561,10.293 -26.01,18.994 -40.348,26.102c-14.337,7.107 -29.41,12.56 -45.218,16.359c-15.808,3.799 -31.984,5.698 -48.528,5.698c-16.543,0 -32.719,-1.868 -48.527,-5.606c-15.808,-3.738 -30.881,-9.191 -45.218,-16.359c-14.338,-7.169 -27.787,-15.901 -40.348,-26.194c-12.561,-10.294 -23.865,-21.997 -33.914,-35.109c-6.495,-2.328 -12.407,-5.576 -17.738,-9.742c-5.331,-4.167 -9.895,-8.976 -13.694,-14.43c-3.799,-5.453 -6.74,-11.427 -8.823,-17.922c-2.084,-6.494 -3.125,-13.173 -3.125,-20.036c0,-7.842 1.409,-15.624 4.228,-23.344c-1.348,-6.985 -2.39,-14.031 -3.125,-21.139c-0.736,-7.107 -1.103,-14.276 -1.103,-21.506c0,-19.362 2.512,-38.05 7.536,-56.064c5.024,-18.014 12.132,-34.864 21.323,-50.549c9.191,-15.686 20.219,-29.962 33.087,-42.829c12.867,-12.867 27.143,-23.896 42.829,-33.087c15.685,-9.191 32.504,-16.298 50.457,-21.323c17.953,-5.024 36.671,-7.536 56.155,-7.536c19.362,0 38.05,2.512 56.064,7.536c18.014,5.025 34.864,12.132 50.549,21.323c15.686,9.191 29.962,20.22 42.829,33.087c12.868,12.867 23.896,27.143 33.087,42.829c9.191,15.685 16.299,32.535 21.323,50.549c5.024,18.014 7.536,36.702 7.536,56.064Z" style="fill-rule:nonzero;"/>
                <path d="M443.363,-132.163c0,17.033 -2.206,33.423 -6.618,49.17c-4.411,15.747 -10.63,30.483 -18.657,44.208c-8.026,13.725 -17.646,26.194 -28.859,37.406c-11.213,11.213 -23.681,20.833 -37.406,28.859c-13.725,8.027 -28.461,14.246 -44.208,18.658c-15.747,4.411 -32.137,6.617 -49.171,6.617c-17.033,0 -33.423,-2.206 -49.17,-6.617c-15.747,-4.412 -30.483,-10.631 -44.208,-18.658c-13.725,-8.026 -26.193,-17.646 -37.406,-28.859c-11.213,-11.212 -20.833,-23.681 -28.859,-37.406c-8.027,-13.725 -14.246,-28.461 -18.657,-44.208c-4.412,-15.747 -6.618,-32.137 -6.618,-49.17c0,-17.034 2.206,-33.424 6.618,-49.171c4.411,-15.747 10.63,-30.483 18.657,-44.208c8.026,-13.724 17.646,-26.193 28.859,-37.406c11.213,-11.213 23.681,-20.832 37.406,-28.859c13.725,-8.027 28.461,-14.246 44.208,-18.657c15.747,-4.412 32.137,-6.618 49.17,-6.618c17.034,0 33.424,2.206 49.171,6.618c15.747,4.411 30.483,10.63 44.208,18.657c13.725,8.027 26.193,17.646 37.406,28.859c11.213,11.213 20.833,23.682 28.859,37.406c8.027,13.725 14.246,28.461 18.657,44.208c4.412,15.747 6.618,32.137 6.618,49.171Z" style="fill:rgb(255,200,61);fill-rule:nonzero;"/>
                <path d="M218.74,-237.857c3.677,0 6.802,1.287 9.375,3.86c2.573,2.573 3.86,5.698 3.86,9.375c0,3.676 -1.287,6.801 -3.86,9.374c-2.573,2.574 -5.698,3.86 -9.375,3.86c-14.092,0 -26.745,2.727 -37.958,8.18c-11.212,5.453 -21.659,13.143 -31.34,23.069c-1.348,1.47 -2.819,2.604 -4.412,3.4c-1.593,0.797 -3.431,1.195 -5.514,1.195c-1.716,0 -3.37,-0.367 -4.963,-1.103c-1.593,-0.735 -3.002,-1.715 -4.228,-2.941c-1.225,-1.225 -2.206,-2.634 -2.941,-4.227c-0.735,-1.593 -1.103,-3.309 -1.103,-5.147c0,-2.941 1.103,-5.821 3.309,-8.64c5.269,-6.372 11.335,-12.07 18.198,-17.094c6.862,-5.025 14.184,-9.252 21.966,-12.684c7.781,-3.431 15.808,-6.035 24.079,-7.812c8.272,-1.777 16.574,-2.665 24.907,-2.665Zm79.409,-0c8.21,-0 16.482,0.888 24.815,2.665c8.333,1.777 16.39,4.381 24.171,7.812c7.782,3.432 15.073,7.659 21.874,12.684c6.802,5.024 12.898,10.722 18.29,17.094c2.206,2.819 3.309,5.699 3.309,8.64c-0,1.838 -0.368,3.554 -1.103,5.147c-0.735,1.593 -1.716,3.002 -2.941,4.227c-1.226,1.226 -2.635,2.206 -4.228,2.941c-1.593,0.736 -3.247,1.103 -4.963,1.103c-2.083,0 -3.921,-0.398 -5.514,-1.195c-1.593,-0.796 -3.064,-1.93 -4.412,-3.4c-9.681,-9.926 -20.128,-17.616 -31.34,-23.069c-11.213,-5.453 -23.866,-8.18 -37.958,-8.18c-3.677,0 -6.802,-1.286 -9.375,-3.86c-2.573,-2.573 -3.86,-5.698 -3.86,-9.374c0,-3.677 1.287,-6.802 3.86,-9.375c2.573,-2.573 5.698,-3.86 9.375,-3.86Z" style="fill:rgb(212,140,0);fill-rule:nonzero;"/>
                <path d="M364.138,-92.459c-0,14.583 -2.787,28.277 -8.363,41.083c-5.576,12.805 -13.143,23.988 -22.701,33.546c-9.559,9.558 -20.741,17.125 -33.547,22.701c-12.806,5.576 -26.5,8.364 -41.083,8.364c-14.582,0 -28.276,-2.788 -41.082,-8.364c-12.806,-5.576 -23.988,-13.143 -33.547,-22.701c-9.558,-9.558 -17.125,-20.741 -22.701,-33.546c-5.576,-12.806 -8.363,-26.5 -8.363,-41.083l211.387,0Zm-132.163,-39.704l-13.235,0c0,-3.677 -1.286,-6.801 -3.86,-9.375c-2.573,-2.573 -5.698,-3.86 -9.374,-3.86l-39.521,0c-3.676,0 -6.801,1.287 -9.374,3.86c-2.574,2.574 -3.86,5.698 -3.86,9.375l-13.235,0c0,-5.515 1.042,-10.662 3.125,-15.441c2.083,-4.779 4.932,-8.976 8.547,-12.591c3.615,-3.615 7.812,-6.464 12.592,-8.548c4.779,-2.083 9.926,-3.124 15.44,-3.124l13.235,0c5.514,0 10.661,1.041 15.44,3.124c4.779,2.084 8.946,4.933 12.5,8.548c3.553,3.615 6.372,7.812 8.455,12.591c2.083,4.779 3.125,9.926 3.125,15.441Zm52.939,0c0,-5.515 1.042,-10.662 3.125,-15.441c2.083,-4.779 4.902,-8.976 8.455,-12.591c3.554,-3.615 7.721,-6.464 12.5,-8.548c4.779,-2.083 9.926,-3.124 15.44,-3.124l13.235,0c5.514,0 10.661,1.041 15.44,3.124c4.78,2.084 8.977,4.933 12.592,8.548c3.615,3.615 6.464,7.812 8.547,12.591c2.083,4.779 3.125,9.926 3.125,15.441l-13.235,0c0,-3.677 -1.286,-6.801 -3.86,-9.375c-2.573,-2.573 -5.698,-3.86 -9.374,-3.86l-39.704,0c-3.677,0 -6.771,1.317 -9.283,3.952c-2.512,2.635 -3.768,5.729 -3.768,9.283l-13.235,0Z" style="fill-rule:nonzero;"/>
                <path d="M174.808,-52.939c-3.921,-8.088 -6.556,-16.85 -7.904,-26.285l183.081,0c-1.226,9.068 -3.922,17.83 -8.088,26.285l-167.089,0Z" style="fill:white;fill-rule:nonzero;"/>
                <path d="M297.597,-8.823c-6.127,2.941 -12.499,5.147 -19.117,6.617c-6.617,1.471 -13.296,2.206 -20.036,2.206c-6.862,0 -13.571,-0.735 -20.127,-2.206c-6.556,-1.47 -12.959,-3.676 -19.209,-6.617c5.024,-5.637 10.937,-9.987 17.738,-13.051c6.801,-3.064 14.001,-4.595 21.598,-4.595c7.598,0 14.767,1.501 21.507,4.503c6.74,3.002 12.622,7.383 17.646,13.143Z" style="fill:rgb(240,58,23);fill-rule:nonzero;"/>
                <path d="M443.363,-66.174c0,5.515 -1.042,10.662 -3.125,15.441c-2.083,4.779 -4.902,8.976 -8.456,12.591c-3.553,3.615 -7.72,6.464 -12.499,8.548c-4.779,2.083 -9.926,3.125 -15.441,3.125c-5.514,0 -10.691,-1.042 -15.532,-3.125c-4.84,-2.084 -9.037,-4.902 -12.591,-8.456c-3.554,-3.554 -6.373,-7.751 -8.456,-12.591c-2.083,-4.841 -3.125,-10.018 -3.125,-15.533l0,-65.989l58.086,30.881c6.617,3.553 11.795,8.455 15.532,14.705c3.738,6.25 5.607,13.051 5.607,20.403Zm-290.612,-65.989l0,65.989c0,5.515 -1.042,10.662 -3.125,15.441c-2.083,4.779 -4.933,8.976 -8.548,12.591c-3.615,3.615 -7.812,6.464 -12.591,8.548c-4.779,2.083 -9.926,3.125 -15.441,3.125c-5.514,0 -10.661,-1.042 -15.44,-3.125c-4.779,-2.084 -8.946,-4.933 -12.499,-8.548c-3.554,-3.615 -6.373,-7.812 -8.456,-12.591c-2.083,-4.779 -3.125,-9.926 -3.125,-15.441c0,-7.352 1.869,-14.153 5.607,-20.403c3.737,-6.25 8.915,-11.152 15.532,-14.705l58.086,-30.881Z" style="fill:rgb(0,180,255);fill-rule:nonzero;"/>
            </g>
        </g>
    </g>
</svg>
